<?xml version="1.0" ?><svg enable-background="new 0 0 262.6 230.2" version="1.1" viewBox="0 0 262.6 230.2" xml:space="preserve" xmlns="http://www.w3.org/2000/svg" xmlns:xlink="http://www.w3.org/1999/xlink"><g id="Layer_6"><g id="XMLID_39_"><g><path d="M262.4,171.6c0.1,20.4-13.5,37.6-31.5,44.9c-21.1,8.6-43.9,6.2-66.1,6c-32.4-0.3-64.4,10.9-96.9,6.3     c-20.2-2.8-43.7-10.1-57.5-26.5c-7.3-8.7-11.2-19.2-9.9-30.8c1.1-9.5,7.1-21.9,14.7-27.9c-4.4-8.8-3.4-19.4,0.4-29.3     c5.3-13.6,21.8-18.2,34.6-21.2c-7.7-8.4-10-21.8-2.5-31.3c4.5-5.8,11-9.2,17.9-11c6.3-1.6,12.3-3.1,18.6-3.7l0.5,2.6     c-5,0.9-10,2.4-14.8,3.8c-6,1.7-12.3,3.6-16.9,8.2c-4.8,4.9-7.1,11.6-5.4,18.5C49.3,87,54,91.5,58.1,97c0.6,0.8-0.5,1.7-1.2,1.3     c-1.3-0.7-2.6-1.5-3.8-2.5c-11.5,3-28,6.6-33.5,18.8c-2.6,5.6-3.9,12.8-3.6,19c0.3,6.7,3.4,11.9,7.4,17.1c0.8,1-0.4,2.1-1.3,1.4     c-1.9-1.6-3.5-3.3-4.8-5.1c-3.8,3.3-6.5,8.5-8.7,13c-3.6,7.2-5.5,15.3-3.5,23.3c2.8,11.2,10.5,19.9,19.9,26     c21.7,14,48.5,18,73.7,15.8c16.8-1.5,33.3-4.9,50-6.2c13.1-1,26.1,0,39.2,0c22.3,0,49.4-2.7,63.1-23.4     c9.1-13.8,9.3-30.1,2.4-45.1c-3.5-7.6-7.9-13.7-15-18.2c-3.9-2.5-8-4.7-12-7l1.3-2.3c8.7,4.2,17.4,8.1,23.7,16.1     C258.2,147.7,262.3,160.5,262.4,171.6z"/><path d="M253.5,150.4c6.9,15,6.7,31.3-2.4,45.1c-13.8,20.8-40.8,23.4-63.1,23.4c-13.1,0-26.1-1.1-39.2,0     c-16.8,1.3-33.3,4.7-50,6.2c-25.2,2.3-52-1.8-73.7-15.8c-9.4-6.1-17.1-14.8-19.9-26c-2-8-0.1-16.1,3.5-23.3     c2.2-4.5,4.9-9.7,8.7-13c1.3,1.8,2.9,3.5,4.8,5.1c0.9,0.8,2.1-0.4,1.3-1.4c-4-5.2-7-10.4-7.4-17.1c-0.3-6.2,1-13.3,3.6-19     c5.6-12.2,22-15.9,33.5-18.8c1.2,0.9,2.4,1.8,3.8,2.5c0.7,0.4,1.8-0.5,1.2-1.3c-4-5.5-8.7-9.9-10.4-16.8     c-1.7-6.9,0.6-13.6,5.4-18.5C57.6,57,64,55.2,70,53.4c4.8-1.4,9.8-2.9,14.8-3.8c2.7-0.5,5.4-0.7,8-0.6c1.4,0,1.4-2.2,0-2.2     c-1.9-0.1-3.7,0-5.5,0c-6-8.9-2.2-18,4.5-25.7c7-8.1,17.1-11.7,27.3-13.6c10.5-1.9,20-0.4,30.3,1c2.6,0.4,7.4,0,10.2-1.9     c-0.1,0.2-0.2,0.4-0.3,0.7c-1.6,3.2-4.8,5.5-7.6,8.7c-1.6,1.9-2.8,4-2.7,6.5c0.2,4.6,5.6,7.9,9,9.8c6,3.5,12.5,5.8,18.6,9     c3.2,1.7,5.4,3.5,7.6,6.5c4.8,6.6,3.5,13,2.3,20.5c-0.1,0.9,0.9,1.8,1.6,1c0.7-0.8,1.2-1.7,1.7-2.6c0,0,0.1,0,0.1,0     c0.4,0,0.7-0.1,1.1-0.1c15.3-1.1,31.6,5.7,40,19.2c4.2,6.8,4.1,15.8,0.5,22.9c-3.1,5.9-9.2,8.7-13.7,13.2c-0.6,0.6,0,1.6,0.8,1.4     c1-0.3,1.9-0.6,2.8-1c0,0,0.1,0.1,0.1,0.1c1.7,0.9,3.3,1.8,5,2.8c4.1,2.2,8.1,4.5,12,7C245.6,136.6,250,142.8,253.5,150.4z" fill="#754823"/><path d="M235.8,86.6c6.2,12.9-0.1,28-11.7,34.4c1.2,0.6,2.5,1.2,3.7,1.9l-1.3,2.3c-1.7-0.9-3.3-1.8-5-2.8c-0.1,0-0.1-0.1-0.1-0.1     c-0.9,0.4-1.8,0.7-2.8,1c-0.8,0.2-1.4-0.8-0.8-1.4c4.5-4.5,10.6-7.3,13.7-13.2c3.6-7,3.8-16-0.5-22.9     c-8.4-13.5-24.7-20.3-40-19.2l-0.1-2.9C208.4,61.8,227.7,69.9,235.8,86.6z"/><path d="M186.2,44.5c3.9,5.4,6.4,12.7,4.7,19.1l0.1,2.9c-0.4,0-0.7,0.1-1.1,0.1c0,0-0.1,0-0.1,0c-0.5,0.9-1,1.8-1.7,2.6     c-0.7,0.9-1.8-0.1-1.6-1c1.2-7.5,2.5-13.9-2.3-20.5c-2.2-3-4.4-4.8-7.6-6.5c-6.1-3.2-12.6-5.5-18.6-9c-3.4-2-8.8-5.2-9-9.8     c-0.1-2.5,1.1-4.6,2.7-6.5c2.8-3.2,6-5.5,7.6-8.7l2,0.5c-0.3,0.8-0.9,1.7-1.7,2.7c-2.3,2.9-9.7,9-6.9,13.1     c3.7,5.5,12,8.1,17.7,10.7C175.9,36.9,182.4,39.2,186.2,44.5z"/><path d="M161.4,1.2c0.3,0.9,0.3,1.8,0.2,2.5c0.2,1.6,0.2,2.8-0.3,4.1l-2-0.5c0.1-0.2,0.2-0.4,0.3-0.7c-2.8,1.9-7.6,2.2-10.2,1.9     c-10.3-1.4-19.8-3-30.3-1C108.8,9.4,98.7,13,91.7,21.1c-6.6,7.7-10.4,16.8-4.5,25.7c1.8-0.1,3.6-0.1,5.5,0c1.4,0.1,1.4,2.3,0,2.2     c-2.6-0.1-5.3,0.2-8,0.6L84.3,47c-11.1-10.8,3.4-30.4,14-36.3c9.9-5.5,21.4-7.9,32.6-7.8c4.6,0,9.5,0.2,14,1.4     c2,0.6,4,1.2,6.1,1.5c2.6,0.4,9.8,0.3,9-4.3c0-0.3,0-0.5,0.2-0.7c0,0,0,0,0-0.1c-0.1-0.6,0.9-0.9,1-0.3c0,0,0,0.1,0,0.1     C161.2,0.9,161.3,1,161.4,1.2z"/></g><g/></g></g><g id="Layer_12"><path d="M83.8,75.1c1.6-0.1,2.7,0.7,3.1,2.3c0.2,0.7-0.1,1.5-0.2,2.2c-0.1,0.7-0.1,1.5-0.2,2.3   c-0.1,0.5-0.1,1.1-0.3,1.6c0.1-0.5,0.1-0.3-0.1,0.4c0.1-0.4,0-0.3-0.1,0.4c-0.5,1.2-1.8,1.8-3.1,1.3c-0.4-0.2-0.7-0.4-1-0.7   c0.4,0.3,0.3,0.2-0.3-0.3c-0.4-0.6-0.4-0.8-0.2-0.4c-0.2-0.3-0.4-0.6-0.5-0.9c-0.4-1-0.5-2.1-0.5-3.2   C80.4,78.1,81.6,75.3,83.8,75.1z" fill="#90663B" opacity="0.52"/><path d="M81.7,205.8c-0.1-2-1.3-3.9-2.4-5.5c-0.4-0.6-0.9-1.2-1.4-1.8c-0.1-0.1-0.2-0.3-0.3-0.4   c0.4,0.6,0.2,0.3-0.6-0.8c-0.9-1.1-2-2-3.1-2.8c-3.3-2.4-7.6,1.6-6.6,5.1c0.7,2.5,2.3,5,4.2,6.7c1.1,1,2.7,1.8,3.6,2.2   c0.7,0.3,1.2,0.6,1.9,0.7c0.8,0.2,1.6-0.1,2.4,0C81.2,209.4,82,207.3,81.7,205.8z" fill="#90663B" opacity="0.52"/></g><g id="Layer_11"><path d="M230.6,154.5c-2.4-0.5-4.6,0.3-5.9,2.4c-1.9,2.9-1.1,6.7-2.1,9.9c-1.2,4.1-1.8,7.6-0.6,11.7   c0.7,2.3,3.3,3.3,5.4,2.2c2.3-1.2,3.9-2.1,5.5-4.4c1.5-2.2,2.8-4.4,3.5-7C238.1,164.1,237.1,155.8,230.6,154.5z" fill="#74431F"/><path d="M209.1,94.4c-2.4-0.5-4.6,0.3-5.9,2.4c-1.9,2.9-1.1,6.7-2.1,9.9c-1.2,4.1-1.8,7.6-0.6,11.7   c0.7,2.3,3.3,3.3,5.4,2.2c2.3-1.2,3.9-2.1,5.5-4.4c1.5-2.2,2.8-4.4,3.5-7C216.6,104,215.6,95.7,209.1,94.4z" fill="#74431F"/><path d="M77.4,64.5c1.5,0.3,2.6,1.3,3,2.8c0.4,2.2-0.9,4.2-1.1,6.4c-0.2,2.8-0.7,4.9-2.4,7.1c-1,1.2-2.7,1.2-3.7,0   c-1.1-1.3-1.9-2.2-2.3-3.9c-0.4-1.7-0.6-3.3-0.5-5C70.7,68.5,73.3,63.7,77.4,64.5z" fill="#74431F"/><path d="M82.6,185.1c-0.5-0.7-1.2-1.2-1.9-1.7c-0.2-0.1-1.8-0.9-1.4-0.5c-0.8-0.7-1.6-1.1-2.5-1.7   c0.6,0.4-0.6-0.6-0.7-0.8c-1.2-1.5-2.7-2.7-4.8-2.6c-2.8,0.1-4.9,2.7-4.2,5.5c0.1,0.2,0.3,1,0.4,1.3c0,0.2,0.1,0.5,0.1,0.8   c0.1,0.6,0.3,1.2,0.6,1.7c0.9,1.7,2.4,3.1,4.1,4c2.8,1.6,8.5,2.1,10.9-1.4C84.3,188,83.7,186.5,82.6,185.1z" fill="#74431F"/></g><g id="Layer_10"><path d="M260.1,169.8c-0.2-2.9-0.1-6.3-0.7-9.2c0.3,4.6-0.3,9.3-1.6,13.8c-2.2,4.6-4.6,9-8.1,13.1   c-6.7,7.9-15.6,13.8-25.1,17.6c-10.1,4-20.9,5.6-31.7,5.5c-6.7-0.1-13.5-0.8-20.2-1c-8.3-0.2-16.5,0.1-24.8,0.5   c-15.8,0.8-31.5,2.5-47.2,3.3c-13.1,0.7-27.2,1.5-40.2-1.2c-17.7-3.7-37.3-14.1-47.1-29.8c-4-6.5-6-14.4-4.1-21.7   c0.2-2.4,0.7-4.7,1.6-6.9c-0.4-0.7-1-1.1-1.7-1.3c-6.4,9.3-10.5,23.9-6,35c3,6.1,7.6,11.6,12.5,16.1c14.9,13.7,34.8,22,54.9,23.6   c31.6,2.6,63.1-3.7,94.6-4.7c13.3-0.4,26.6,1.4,39.8-0.1c6.3-0.8,12.5-2.2,18.4-4.3c0.7-0.8,1.6-1.5,2.8-2   c12.7-4.7,25.4-12.5,31.1-25.2C260,184.2,260.7,176.8,260.1,169.8z" fill="#633515"/><path d="M42.6,101.1c-9.5-0.6-17.6,7.8-21.1,15.8c-4.1,9.5-2.5,19.1,4.1,26.7c1.1,1.3,2.9-0.3,2.2-1.7   c-3.4-7-3.8-15.7-1.3-22.9c2.9-8.3,9.1-12.7,16.4-16.9C43.4,101.8,43.2,101.1,42.6,101.1z" fill="#915F3E"/><path d="M53.9,168.6c-5.8-1.5-11.6-2.9-17.3-4.5c-6-1.7-10.7-5.4-16.3-7.8c-1.2-0.5-3,0.7-2,2   c8.2,11.2,22.9,11.3,35.3,12.3C54.8,170.7,55,168.9,53.9,168.6z" fill="#915F3E"/><path d="M57.7,63.2c0.1-0.8-0.5-1.6-1.4-1.4c-4.1,1.1-6,6.3-6.5,10.1c-0.7,5.6,0.7,10.1,4.7,14   c1.2,1.2,3.2-0.3,2.3-1.8c-1.8-3.2-2.2-7.5-2.1-11.1C55,69.5,57.1,66.6,57.7,63.2z" fill="#915F3E"/><path d="M204.6,69.8c-0.1,0-0.2,0.2-0.1,0.3c5.6,3.8,11.2,6.5,15.6,11.7c4.5,5.4,5.8,12.4,8,18.9   c0.5,1.3,2.5,1.5,2.9,0C235,85.6,219.6,69.5,204.6,69.8z" fill="#915F3E"/><path d="M182.6,50.2c-1.2-2.9-3.7-6.7-7.4-6c-1,0.2-1.1,1.4-0.6,2.1c3.6,4.4,5.9,9.7,6.9,15.3c0.2,1.2,2,1.1,2.3,0   C184.8,57.5,184.2,54,182.6,50.2z" fill="#915F3E"/><path d="M248.8,147c-0.4-0.8-8.5-12.2-9.7-9.5c-1.5,3.3,3.5,9.4,5.1,12.2c3.6,6.4,7.3,13.6,8.5,20.9   c0.2,1.5,2.5,1.1,2.6-0.3C255.7,161.8,253,154.3,248.8,147z" fill="#915F3E"/><path d="M131.3,10.7c-4.9-0.4-9.5-1.2-14.4-0.6c-5,0.6-9.6,2.1-14.2,4.1c-7.6,3.5-16.1,11.3-15.8,20.4   c0,0,0,0,0.1,0c3.3-1.5,4.8-4.7,7.2-7.2c3.3-3.5,7-6.2,11.3-8.4c7.6-3.8,17.4-5.8,25.8-6.5C132.5,12.4,132.5,10.8,131.3,10.7z" fill="#915F3E"/></g><g id="Layer_6_copy"><path d="M251.5,139c-7.1-9.2-17.5-12.9-27.4-18c11.6-6.4,17.9-21.5,11.7-34.4c-8.1-16.7-27.4-24.9-44.9-23   c1.7-6.5-0.9-13.7-4.7-19.1c-3.8-5.3-10.3-7.7-15.9-10.2c-5.7-2.6-13.9-5.2-17.7-10.7c-2.8-4.1,4.6-10.2,6.9-13.1   c2.2-2.8,2.4-4.3,2-6.8c0.1-0.7,0.1-1.5-0.2-2.5c-0.1-0.2-0.2-0.3-0.3-0.4c0,0,0-0.1,0-0.1c-0.1-0.7-1.1-0.4-1,0.3c0,0,0,0,0,0.1   c-0.1,0.2-0.2,0.4-0.2,0.7c0.8,4.6-6.5,4.7-9,4.3c-2.1-0.3-4.1-1-6.1-1.5c-4.5-1.2-9.3-1.4-14-1.4c-11.2-0.1-22.7,2.4-32.6,7.8   c-10.6,5.8-25.1,25.4-14,36.3c-6.3,0.6-12.3,2.1-18.6,3.7c-6.9,1.8-13.3,5.2-17.9,11c-7.5,9.5-5.2,23,2.5,31.3   c-12.8,2.9-29.3,7.5-34.6,21.2c-3.8,9.9-4.8,20.6-0.4,29.3c-7.6,6-13.6,18.4-14.7,27.9c-1.3,11.6,2.6,22.1,10,30.8   c13.8,16.4,37.3,23.6,57.5,26.5c32.5,4.6,64.4-6.7,96.9-6.3c22.2,0.2,44.9,2.6,66-6c18.1-7.4,31.7-24.5,31.5-44.9   C262.3,160.5,258.2,147.7,251.5,139z M187.9,218.9c-13.1,0-26.1-1.1-39.2,0c-16.8,1.3-33.3,4.7-50,6.2c-25.2,2.3-52-1.8-73.7-15.8   c-9.4-6.1-17.1-14.8-19.9-26c-2-8-0.1-16.1,3.5-23.3c2.2-4.5,4.9-9.7,8.7-13c1.3,1.8,2.9,3.5,4.8,5.1c0.9,0.8,2.1-0.4,1.3-1.4   c-4-5.2-7.1-10.4-7.4-17.1c-0.3-6.2,1-13.3,3.6-19c5.6-12.3,22-15.8,33.5-18.8c1.2,0.9,2.4,1.8,3.8,2.5c0.7,0.4,1.8-0.5,1.2-1.3   c-4-5.5-8.7-9.9-10.4-16.8c-1.7-6.9,0.6-13.6,5.4-18.5C57.6,57,64,55.2,70,53.4c7.3-2.1,15.2-4.6,22.8-4.4c1.4,0,1.4-2.2,0-2.2   c-1.9-0.1-3.7-0.1-5.5,0c-6-8.9-2.2-18,4.5-25.7c7-8.1,17.1-11.7,27.3-13.6c10.5-1.9,20-0.4,30.3,1c2.6,0.4,7.4,0,10.2-1.9   c-1.5,3.6-4.9,6-7.9,9.4c-1.6,1.9-2.8,4-2.7,6.5c0.2,4.7,5.6,7.9,9,9.8c6,3.5,12.5,5.8,18.6,9c3.2,1.7,5.5,3.5,7.6,6.5   c4.8,6.6,3.5,13,2.3,20.5c-0.1,0.9,0.9,1.8,1.6,1c0.7-0.8,1.2-1.7,1.7-2.6c0,0,0.1,0,0.1,0c15.6-1.5,32.5,5.3,41.1,19.1   c4.2,6.8,4.1,15.8,0.5,22.8c-3.1,5.9-9.2,8.7-13.7,13.2c-0.6,0.6,0,1.6,0.8,1.4c1-0.3,1.9-0.6,2.8-1c0,0,0.1,0.1,0.2,0.1   c5.7,3.2,11.5,6.2,17,9.7c7.1,4.5,11.5,10.6,15,18.2c6.9,15,6.7,31.3-2.4,45.1C237.3,216.2,210.3,218.9,187.9,218.9z"/></g><g id="Layer_8"/><g id="smily_color"><path d="M168.8,90.3c-7.4-4.6-16.3-4-19.6,3.1c-9.7,15.5-1.5,41,18.3,42.6c10.7,0.9,16.1-8.2,16.9-17.8   C185.4,106.7,178.1,96.1,168.8,90.3z" fill="#FFFFFF"/><path d="M125.9,99.3c-0.9-3.4-3.2-9.2-7.4-9.4c-0.1,0-0.1-0.1-0.2-0.1c0.2,0,0.5-0.1,0.7-0.1c0.5-0.1,0.5-0.9,0-1   c-9.6-1.7-18.6,0.7-24.9,8.4c-4.8,5.8-7.6,14.8-5.7,22.3c0.1,0.4,0.4,0.5,0.7,0.4c0.3,4.2,1.3,7.6,4.3,11c3.4,3.9,8.2,6,13.2,5.3   c9.3-1.1,16.9-10.4,19-19.1C127,111.3,127.3,104.9,125.9,99.3z" fill="#FFFFFF"/><path d="M186.1,148.4c-9.4,5-18.8,9-29.3,10.9c-0.4-0.3-0.8-0.4-1.3-0.5c-4.1-0.5-8.5,0.4-12.7,0.7   c-4,0.3-8,0.6-11.9,0.8c-4.7-1.4-9.3-2.8-14.2-3c-1.3-0.1-2.3,0.6-3,1.6c-1,0-2.1,0.1-3,0.3c-3.7-0.8-7.4-1.6-11-2.8   c-3.9-1.3-7.2-3.9-11.2-4.7c-2.8-0.5-5,3.7-2.1,5.2c3.5,1.8,6.1,4.8,9.8,6.2c4.2,1.6,8.4,2.7,12.7,3.7c9.8,2.3,19.4,3.6,29.5,3.6   c1.3,0,2.3-0.6,2.9-1.6c4.5-0.2,8.9-0.8,13-1.3c7-0.9,13.7-2.5,20.3-5.2c5.4-2.2,12.6-3.9,16-9.2   C192.8,150.1,188.9,146.9,186.1,148.4z" fill="#FFFFFF"/></g><g id="smily_top"><path d="M100,137.2c15,3.9,27.2-8.7,30-22.3c2.4-11.3-0.6-28.2-14.4-29.8c-2.8-0.3-5.6,0.4-8,1.9c-0.1,0.1-0.2,0.2-0.3,0.3   c-10.1,2.5-17.2,11-19.8,21.6C84.8,119.9,87.7,134,100,137.2z M90.1,110.5c1.7-10.2,8.5-18.8,17.9-21.8c0.1,0,0.1,0,0.2,0   c5.8-0.4,10.8-1,14.7,4.2c3.4,4.6,4.3,10.6,4.1,16.1c-0.5,13.3-9.3,25-23.3,24.8C91.6,133.7,88.4,120.1,90.1,110.5z"/><path d="M165.1,137.4c13.2,2.1,21.5-7.7,21.8-20.2c0.3-12.6-7.1-25.8-19.5-29.6c-0.5-0.1-1-0.3-1.4-0.4c-0.1-0.1-0.1-0.1-0.2-0.2   c-5.1-3.4-11.7-2.2-16.2,1.6c-4.9,4-6.5,11-6.9,16.9C141.8,120.1,150,135,165.1,137.4z M150.3,93.6c3.6-5.8,9.2-5.2,15.1-4.8   c0.1,0,0.1,0,0.2,0c9.2,2.9,15.6,11.1,17.7,21c2.1,9.6-1,22.9-12.5,24.1c-14.2,1.4-23-11.1-24.1-23.8   C146.2,104.3,147.2,98.4,150.3,93.6z"/><path d="M111.6,118c3.6,0,6.5-2.9,6.5-6.5c0-3.6-2.9-6.5-6.5-6.5c-3.6,0-6.5,2.9-6.5,6.5C105,115.1,108,118,111.6,118z    M112.4,107.4c3.3,0,3.3,5.1,0,5.1C109.1,112.5,109.1,107.4,112.4,107.4z"/><path d="M162,118c3.6,0,6.5-2.9,6.5-6.5c0-3.6-2.9-6.5-6.5-6.5c-3.6,0-6.5,2.9-6.5,6.5C155.5,115.1,158.4,118,162,118z    M162.8,107.4c3.3,0,3.3,5.1,0,5.1C159.5,112.5,159.5,107.4,162.8,107.4z"/><path d="M161.3,75.4c7.6-0.1,12.6,4,18.6,8.2c0.5,0.4,1-0.3,0.8-0.8c-3.1-6.9-9.4-13.2-17.2-14.2c-7.1-0.9-16.1,1-20.7,6.8   c-0.3,0.4-0.2,1.1,0.3,1.2C149.2,78.5,155.1,75.5,161.3,75.4z"/><path d="M89,84.6c6-4.3,10.9-8.2,18.6-8.2c6.2,0,12.1,3,18.3,1.2c0.6-0.2,0.7-0.8,0.3-1.2c-4.6-5.7-13.7-7.7-20.7-6.8   c-7.8,1-14.2,7.3-17.2,14.2C88,84.2,88.5,84.9,89,84.6z"/><path d="M68.4,148.5c0.9-1.1,1.6-2.3,2.5-3.4c3.1,5.8,7.3,11.4,11.3,16.5c4.2,5.3,8.6,10.4,13.9,14.7c11.3,9,25.6,11.5,39.7,10.8   c14.7-0.7,29.4-5,41.7-13.1c9.5-6.3,21.7-19.3,20.7-31.8c0.3-0.4,0.7-0.7,1-1.1c1,1.1,1.8,2.3,3,3.2c0.4,0.3,0.8,0,1-0.4   c1.5-4.3-5-9.6-9-7.8c-0.5,0.2-0.6,1.1-0.2,1.4c0.8,0.7,1.8,1.2,2.7,1.7c-18.2,12.5-38.7,16.9-60.7,17c-21.5,0.2-43.5-4-63.1-13.2   c0.3-0.2,0.7-0.5,1-0.7c0.6-0.5,1.3-1.4,2.1-1.7c0.7-0.3,0.6-1.3-0.2-1.3c-1.2-0.1-2-0.3-3.2,0c-1.2,0.2-2.2,1.3-3,2.1   c-1.6,1.6-2.9,3.9-3.3,6.2c0,0,0,0,0,0C66.1,148.6,67.5,149.7,68.4,148.5z M136.1,160.7c12.1,0,24.4-1.4,36.1-4.7   c5.4-1.5,11.1-3.6,16.2-6.4c-1.9,2-3.8,4.1-6.1,5.8c-3.9,2.9-8.2,5.1-12.7,6.9c-8.5,3.3-17.7,4.9-26.8,5.5   c-19.5,1.1-39.1-2.3-54.7-13.8C103.3,159.3,120.8,160.7,136.1,160.7z"/><g><path d="M121.7,202.1c12.7,3,28.1,2.9,38.9-5.2c0.4-0.3,0.1-0.9-0.4-0.7c-6.5,2.8-13,5-20,5.6c-6.1,0.5-12.2-0.5-18.4-0.5    C121.4,201.3,121.3,202,121.7,202.1L121.7,202.1z"/></g></g></svg>